<?xml version="1.0" encoding="UTF-8"?>
<svg version="1.1" xmlns="http://www.w3.org/2000/svg" width="2000" height="2000">
<path d="M0 0 C660 0 1320 0 2000 0 C2000 660 2000 1320 2000 2000 C1340 2000 680 2000 0 2000 C0 1340 0 680 0 0 Z " fill="#1E1E2E" transform="translate(0,0)"/>
<path d="M0 0 C16.17 0 32.34 0 49 0 C49 95.7 49 191.4 49 290 C33.16 290 17.32 290 1 290 C1 277.46 1 264.92 1 252 C-0.32 252 -1.64 252 -3 252 C-3.11214844 252.89138672 -3.11214844 252.89138672 -3.2265625 253.80078125 C-5.07817061 265.47317357 -10.82356291 274.601046 -20 282 C-37.08790764 293.34130759 -58.5227102 295.93983003 -78.55078125 292.31640625 C-96.02649181 287.94294182 -112.32504274 277.63047525 -122.13427734 262.21777344 C-133.26797617 243.10451051 -136.30944805 222.27081257 -136.37109375 200.4765625 C-136.38009657 198.80146218 -136.38921882 197.12636249 -136.39845276 195.45126343 C-136.41483802 191.95332917 -136.42262265 188.45548935 -136.42553711 184.95751953 C-136.42982714 181.42010303 -136.45057482 177.88342069 -136.48706055 174.34619141 C-136.7901565 144.40893346 -136.67702184 113.2934728 -115 90 C-114.33613281 89.23429688 -113.67226562 88.46859375 -112.98828125 87.6796875 C-99.95723758 73.46838294 -81.95484811 68.29918049 -63.265625 66.77734375 C-46.68945156 66.19968922 -29.31175286 70.58406498 -17 82 C-9.0986489 89.68664047 -3.62224563 97.79957873 -3 109 C-1.68 109 -0.36 109 1 109 C0.92894547 108.17273911 0.85789093 107.34547821 0.78468323 106.4931488 C-0.10217918 94.9801621 -0.12838149 83.51478411 -0.09765625 71.97265625 C-0.09578675 69.88659194 -0.09436536 67.80052719 -0.09336853 65.71446228 C-0.08958523 60.27469632 -0.07979166 54.83495787 -0.06866455 49.39520264 C-0.05654152 42.84120502 -0.05202822 36.28719811 -0.04621124 29.73319244 C-0.0365769 19.82210927 -0.01739126 9.91108624 0 0 Z " fill="#FDFDFD" transform="translate(1279,856)"/>
<path d="M0 0 C1.07967041 0.25740967 1.07967041 0.25740967 2.18115234 0.52001953 C16.79671277 4.14074393 29.67083638 9.8343721 41 20 C41.93392578 20.77730469 41.93392578 20.77730469 42.88671875 21.5703125 C51.48146067 29.25729516 56.7414257 41.13808567 60 52 C60.17678 52.5692004 60.35356001 53.1384008 60.53569698 53.7248497 C61.15319329 56.75066876 61.12261614 59.61808646 61.12025452 62.70709229 C61.12153615 63.71677271 61.12153615 63.71677271 61.12284368 64.74685073 C61.12448993 67.0008573 61.11899111 69.25478935 61.11352539 71.50878906 C61.11324331 73.12512205 61.11340166 74.74145517 61.1139679 76.35778809 C61.11425505 80.74585224 61.10837152 85.1338891 61.10139394 89.52194691 C61.0951468 94.10770848 61.09455552 98.69347067 61.09336853 103.27923584 C61.09025924 111.96310385 61.08205124 120.64695928 61.07201904 129.33082175 C61.06084545 139.21706085 61.05534431 149.10330055 61.05032361 158.98954439 C61.03986831 179.32637151 61.0215278 199.66318138 61 220 C45.82 220 30.64 220 15 220 C15 205.81 15 191.62 15 177 C13.68 177 12.36 177 11 177 C10.88785156 177.89138672 10.88785156 177.89138672 10.7734375 178.80078125 C8.78221333 191.35330222 1.94503011 201.61424117 -8.02734375 209.34765625 C-22.17325571 219.33032674 -37.36508192 223.17855693 -54.5 223.1875 C-55.70398438 223.19974609 -56.90796875 223.21199219 -58.1484375 223.22460938 C-69.16994084 223.24238599 -80.02291594 222.6097276 -90.125 217.875 C-90.7960376 217.56860596 -91.4670752 217.26221191 -92.15844727 216.9465332 C-105.86751113 210.45690936 -117.40982284 200.33643221 -123 186 C-129.98606451 165.94170629 -130.18333639 146.26969281 -121.4375 126.75 C-112.30270279 109.79526276 -95.22642246 97.92820352 -77.05859375 92.41796875 C-64.1896908 88.81986238 -52.01211627 87.85210253 -38.68359375 87.90234375 C-37.21672107 87.90421239 -35.74984777 87.90563419 -34.28297424 87.90663147 C-30.45094025 87.91042152 -26.61894508 87.92022118 -22.78692627 87.93133545 C-18.86511765 87.9416257 -14.94330265 87.94614529 -11.02148438 87.95117188 C-3.34763869 87.96184714 4.32617518 87.97888057 12 88 C11.88822884 84.70774862 11.75807764 81.41645353 11.625 78.125 C11.57859375 76.74828125 11.57859375 76.74828125 11.53125 75.34375 C11.06473969 64.30300601 9.78502451 55.31783988 2 47 C-0.84289265 44.87037791 -3.73473923 43.37929119 -7 42 C-7.70640625 41.69449219 -8.4128125 41.38898437 -9.140625 41.07421875 C-23.20302038 35.41168931 -41.33357521 36.45070091 -55.25390625 41.87890625 C-63.97464073 45.83385035 -67.66549029 50.33098059 -72 59 C-88.17 59 -104.34 59 -121 59 C-118.40562256 43.43373536 -111.99095453 32.18012759 -101 21 C-100.38511719 20.37222656 -99.77023437 19.74445312 -99.13671875 19.09765625 C-88.25709592 8.82375117 -72.60327031 1.72983093 -58 -1 C-57.11441406 -1.18433594 -56.22882813 -1.36867188 -55.31640625 -1.55859375 C-37.26066615 -4.76310087 -17.82950806 -4.2669264 0 0 Z " fill="#FDFDFD" transform="translate(791,926)"/>
<path d="M0 0 C36.96 0 73.92 0 112 0 C112 123.09 112 246.18 112 373 C75.37 373 38.74 373 1 373 C1 357.82 1 342.64 1 327 C21.13 327 41.26 327 62 327 C62 234.27 62 141.54 62 46 C41.54 46 21.08 46 0 46 C0 30.82 0 15.64 0 0 Z " fill="#F78F1C" transform="translate(1648,816)"/>
<path d="M0 0 C36.63 0 73.26 0 111 0 C111 15.18 111 30.36 111 46 C90.87 46 70.74 46 50 46 C50 138.73 50 231.46 50 327 C70.13 327 90.26 327 111 327 C111 342.18 111 357.36 111 373 C74.37 373 37.74 373 0 373 C0 249.91 0 126.82 0 0 Z " fill="#E74D30" transform="translate(241,816)"/>
<path d="M0 0 C16.35769283 13.57929993 24.32349542 33.80491832 26.64453125 54.52734375 C27.29605279 65.55315181 27.12700139 76.6124008 27.050107 87.65230274 C27.02477375 91.91496469 27.0227266 96.17764304 27.01800537 100.44036865 C27.00566794 108.47923376 26.9729741 116.51787627 26.93260741 124.5566442 C26.88759878 133.72256099 26.8658302 142.88848949 26.84582567 152.05448961 C26.804231 170.87892543 26.73099713 189.70305687 26.64453125 208.52734375 C10.14453125 208.52734375 -6.35546875 208.52734375 -23.35546875 208.52734375 C-23.37528809 204.36488037 -23.39510742 200.20241699 -23.41552734 195.91381836 C-23.48259105 182.12360038 -23.56013137 168.33345775 -23.64299583 154.54332638 C-23.69295717 146.18669878 -23.73940086 137.83008019 -23.77734375 129.47338867 C-23.81045297 122.18330243 -23.85038614 114.89328967 -23.89825881 107.6032849 C-23.92333725 103.74910163 -23.94517171 99.89496592 -23.95881271 96.0407238 C-23.97180482 92.40045065 -23.99403642 88.76034222 -24.02285194 85.12016106 C-24.03600574 83.17288294 -24.03981573 81.22554842 -24.04316711 79.27822876 C-24.18804217 63.72327446 -25.06218225 50.40475282 -36.015625 38.57421875 C-39.99401614 35.09395672 -44.40811041 33.26146935 -49.35546875 31.52734375 C-50.03480469 31.28242187 -50.71414063 31.0375 -51.4140625 30.78515625 C-61.8422568 27.61984156 -74.18112148 28.94017011 -83.86328125 33.78125 C-93.48186271 39.76433372 -99.06031893 47.58699756 -101.86224937 58.50141716 C-103.52807076 65.88514055 -103.66160511 73.0592692 -103.67431641 80.60595703 C-103.68363373 81.99658275 -103.69380504 83.38720297 -103.70475769 84.77781677 C-103.73186863 88.52296134 -103.74715043 92.26806871 -103.76018572 96.01328516 C-103.77589977 99.93841435 -103.80266325 103.86346846 -103.82821655 107.7885437 C-103.87485872 115.20782739 -103.91167293 122.62712544 -103.94488943 130.04648006 C-103.9832142 138.49883474 -104.03259697 146.95111375 -104.08287358 155.40340447 C-104.18597668 172.77800178 -104.27384748 190.15263133 -104.35546875 207.52734375 C-120.52546875 207.52734375 -136.69546875 207.52734375 -153.35546875 207.52734375 C-153.35546875 135.58734375 -153.35546875 63.64734375 -153.35546875 -10.47265625 C-137.84546875 -10.47265625 -122.33546875 -10.47265625 -106.35546875 -10.47265625 C-106.35546875 2.06734375 -106.35546875 14.60734375 -106.35546875 27.52734375 C-105.03546875 27.52734375 -103.71546875 27.52734375 -102.35546875 27.52734375 C-102.33484375 26.31046875 -102.31421875 25.09359375 -102.29296875 23.83984375 C-101.22981106 14.47814964 -95.51186271 5.58399142 -88.6484375 -0.6953125 C-81.23865418 -6.43884131 -73.4705312 -10.36117359 -64.35546875 -12.47265625 C-63.63746094 -12.67632813 -62.91945313 -12.88 -62.1796875 -13.08984375 C-41.11337283 -18.40190237 -17.16379369 -13.1970047 0 0 Z " fill="#FDFDFD" transform="translate(1063.35546875,937.47265625)"/>
<path d="M0 0 C39.27 0 78.54 0 119 0 C119.03738281 15.89800781 119.07476563 31.79601562 119.11328125 48.17578125 C119.14355436 58.24284729 119.17457609 68.30990178 119.20898438 78.37695312 C119.22701604 83.66609632 119.24489694 88.95523996 119.26245117 94.24438477 C119.26465886 94.9072471 119.26686655 95.57010943 119.26914114 96.25305849 C119.30226973 106.27587406 119.32664639 116.29868233 119.34643555 126.3215332 C119.36943058 137.96097597 119.40284562 149.60033454 119.44870156 161.23971051 C119.47261328 167.40097783 119.49135557 173.56216186 119.49761391 179.7234745 C119.50367393 185.52731201 119.52370734 191.33093649 119.55427551 197.13469505 C119.56304096 199.26024774 119.56678143 201.38582829 119.56500816 203.51139832 C118.87489673 222.39449157 118.87489673 222.39449157 127.17996216 238.58026123 C135.47936247 245.05429167 145.52580307 244.60391539 155.5078125 244.609375 C157.08537471 244.62438208 158.66292136 244.64111447 160.240448 244.65948486 C164.36015609 244.70288758 168.47965235 244.72309674 172.59954834 244.73822021 C177.56000344 244.7613579 182.52022812 244.81375575 187.48049927 244.86116028 C194.98705911 244.92966778 202.49295967 244.96136366 210 245 C210 259.52 210 274.04 210 289 C189.17907142 289.20054405 189.17907142 289.20054405 180.2109375 289.24414062 C174.12379798 289.2738736 168.03703929 289.30880438 161.95019531 289.37719727 C157.03531765 289.43206757 152.12084913 289.46153487 147.20568848 289.47438622 C145.34323701 289.48352845 143.48080448 289.50137692 141.61853027 289.52865028 C120.92821691 289.81923717 102.35577342 284.74358312 87 270 C75.87899977 257.16207342 69.81020335 241.13311257 69.87974548 224.17922974 C69.87889106 223.4104789 69.87803663 222.64172806 69.87715632 221.84968174 C69.87551445 219.28404116 69.88100165 216.71846654 69.88647461 214.15283203 C69.88675679 212.30960593 69.88659815 210.46637972 69.8860321 208.62315369 C69.88574532 203.62572462 69.89162288 198.62831958 69.89860606 193.63089609 C69.90485936 188.40585864 69.90544497 183.18082064 69.90663147 177.95578003 C69.90973895 168.06429487 69.9179445 158.17282077 69.92798096 148.28134048 C69.93916018 137.01902292 69.94465711 125.75670483 69.94967639 114.4943831 C69.96012758 91.32958119 69.97846584 68.16479444 70 45 C46.9 45 23.8 45 0 45 C0 30.15 0 15.3 0 0 Z " fill="#FEFEFE" transform="translate(1369,856)"/>
<path d="M0 0 C14.91685723 13.17618999 23.47991974 31.64270871 25.64453125 51.3359375 C25.86418696 56.75890176 25.83501526 62.15829826 25.76953125 67.5859375 C25.72828125 72.4534375 25.68703125 77.3209375 25.64453125 82.3359375 C8.48453125 82.3359375 -8.67546875 82.3359375 -26.35546875 82.3359375 C-26.68546875 74.7459375 -27.01546875 67.1559375 -27.35546875 59.3359375 C-30.08299879 49.03193512 -35.15954838 39.2787556 -44.35546875 33.3359375 C-57.12316067 26.90967396 -70.73179489 25.42646964 -84.53515625 29.30078125 C-93.11938049 32.45150067 -100.61957171 38.63330211 -104.60546875 46.94140625 C-108.73491552 57.70529508 -109.65515179 68.04537315 -109.67431641 79.50634766 C-109.68363353 80.90682543 -109.6938048 82.30729774 -109.70475769 83.70776367 C-109.73187091 87.47976697 -109.74715112 91.25173332 -109.76018572 95.023808 C-109.77589875 98.97696411 -109.80266256 102.93004566 -109.82821655 106.88314819 C-109.8748605 114.35555603 -109.91167386 121.82797812 -109.94488943 129.3004564 C-109.98321293 137.81326911 -110.03259604 146.32600666 -110.08287358 154.83875585 C-110.18597934 172.33776762 -110.27384907 189.83681141 -110.35546875 207.3359375 C-126.52546875 207.3359375 -142.69546875 207.3359375 -159.35546875 207.3359375 C-159.35546875 135.3959375 -159.35546875 63.4559375 -159.35546875 -10.6640625 C-144.17546875 -10.6640625 -128.99546875 -10.6640625 -113.35546875 -10.6640625 C-113.35546875 1.5459375 -113.35546875 13.7559375 -113.35546875 26.3359375 C-112.03546875 26.3359375 -110.71546875 26.3359375 -109.35546875 26.3359375 C-109.14921875 25.0778125 -108.94296875 23.8196875 -108.73046875 22.5234375 C-106.11133299 10.74661431 -98.87974483 1.63144463 -89.046875 -4.9921875 C-62.4732361 -21.49946972 -24.51855335 -19.75926254 0 0 Z " fill="#FEFEFE" transform="translate(602.35546875,938.6640625)"/>
<path d="M0 0 C9.51163608 7.76363673 14.68745563 18.68382562 16.14472961 30.72286987 C16.59264422 35.97194384 16.52250836 41.23923881 16.52734375 46.50390625 C16.53233635 48.40858673 16.53233635 48.40858673 16.53742981 50.35174561 C16.54247837 53.03124513 16.54527314 55.71064312 16.54467773 58.39013672 C16.54457642 61.78993369 16.55821144 65.1895204 16.57544994 68.58926773 C16.58937802 71.87330551 16.58866221 75.15734301 16.58984375 78.44140625 C16.59702927 79.64492737 16.60421478 80.84844849 16.61161804 82.08843994 C16.572372 96.81540333 14.40395487 110.60411721 3.98828125 121.78125 C-7.2878491 131.86757283 -21.16119047 133.06888469 -35.61523438 132.41748047 C-45.78351258 131.51782808 -53.67385168 125.62081175 -60.390625 118.36328125 C-69.54219986 107.39806854 -69.96349209 95.64946944 -69.9765625 81.91015625 C-69.98300192 80.31365849 -69.9897311 78.71716188 -69.99673462 77.1206665 C-70.00866921 73.78207671 -70.01241947 70.44359007 -70.01123047 67.10498047 C-70.01102766 62.85751499 -70.03830687 58.61072143 -70.07277489 54.36341476 C-70.09517437 51.06710867 -70.09906403 47.77096085 -70.09801102 44.47458649 C-70.10034828 42.91030822 -70.10906418 41.34602431 -70.12467575 39.7818222 C-70.26058781 24.75639799 -67.63651032 13.5250266 -56.94921875 2.4921875 C-42.50430962 -10.94727552 -15.86589878 -10.58508927 0 0 Z " fill="#1F1F2F" transform="translate(1262.640625,973.76171875)"/>
<path d="M0 0 C1.30104675 0.00007553 2.60209351 0.00015106 3.94256592 0.00022888 C5.35786986 0.00533515 6.7731734 0.01055114 8.18847656 0.01586914 C9.64007519 0.01773504 11.09167444 0.01915813 12.54327393 0.02015686 C16.35729725 0.02396852 20.17128229 0.03378724 23.98529053 0.04486084 C27.87983685 0.05510404 31.77438939 0.05966071 35.66894531 0.06469727 C43.30568149 0.07541074 50.94238615 0.0924709 58.57910156 0.11352539 C58.67906926 4.3452349 58.75107829 8.57629249 58.79882812 12.80883789 C58.81876345 14.24418126 58.84592231 15.67944536 58.88085938 17.11450195 C59.15032409 28.47957251 57.9273839 37.92817247 50.57910156 47.11352539 C39.8089128 58.05544837 25.08578124 64.06866891 9.70410156 64.36352539 C-2.38177826 64.18240185 -14.13348007 62.39732908 -23.42089844 54.11352539 C-31.01253192 45.15693154 -32.21282083 36.52772313 -31.60302734 25.13989258 C-30.97064074 18.1039558 -28.23904615 13.52656822 -23.17089844 8.73852539 C-15.90960644 2.81704345 -9.37068845 -0.01816025 0 0 Z " fill="#1F1F2F" transform="translate(744.4208984375,1046.886474609375)"/>
</svg>
